<?xml version="1.0" encoding="UTF-8" standalone="no"?>
<svg
   viewBox="0 0 500 500"
   version="1.1"
   id="svg4"
   sodipodi:docname="rL-logo.svg"
   width="500"
   height="500"
   inkscape:version="1.4.4 (dcaf3e7, 2026-05-05)"
   xmlns:inkscape="http://www.inkscape.org/namespaces/inkscape"
   xmlns:sodipodi="http://sodipodi.sourceforge.net/DTD/sodipodi-0.dtd"
   xmlns:xlink="http://www.w3.org/1999/xlink"
   xmlns="http://www.w3.org/2000/svg"
   xmlns:svg="http://www.w3.org/2000/svg">
  <defs
     id="defs4">
    <linearGradient
       id="linearGradient131"
       inkscape:collect="always">
      <stop
         style="stop-color:#ececec;stop-opacity:1;"
         offset="0.33918127"
         id="stop130" />
      <stop
         style="stop-color:#8d8d8d;stop-opacity:1;"
         offset="0.83430797"
         id="stop131" />
    </linearGradient>
    <linearGradient
       id="linearGradient115"
       inkscape:collect="always">
      <stop
         style="stop-color:#000000;stop-opacity:1;"
         offset="0.18128654"
         id="stop114" />
      <stop
         style="stop-color:#545454;stop-opacity:1;"
         offset="0.83430797"
         id="stop115" />
    </linearGradient>
    <linearGradient
       inkscape:collect="always"
       xlink:href="#linearGradient115"
       id="linearGradient113"
       gradientUnits="userSpaceOnUse"
       gradientTransform="matrix(0.88799298,0,0,0.88799298,145.82437,5.6003488)"
       x1="-17.510475"
       y1="49.838726"
       x2="90.116501"
       y2="23.65206" />
    <linearGradient
       inkscape:collect="always"
       xlink:href="#linearGradient115"
       id="linearGradient116"
       gradientUnits="userSpaceOnUse"
       gradientTransform="matrix(0.88799298,0,0,0.88799298,5.82437,5.6003488)"
       x1="-17.510475"
       y1="49.838726"
       x2="90.116501"
       y2="23.65206" />
    <linearGradient
       inkscape:collect="always"
       xlink:href="#linearGradient131"
       id="linearGradient126"
       gradientUnits="userSpaceOnUse"
       gradientTransform="translate(196.31203,274.12025)"
       x1="-17.510475"
       y1="49.838726"
       x2="90.116501"
       y2="23.65206" />
    <linearGradient
       inkscape:collect="always"
       xlink:href="#linearGradient131"
       id="linearGradient132"
       gradientUnits="userSpaceOnUse"
       gradientTransform="matrix(0.88799298,0,0,0.88799298,136.76005,274.12024)"
       x1="-17.510475"
       y1="49.838726"
       x2="90.116501"
       y2="23.65206" />
  </defs>
  <sodipodi:namedview
     id="namedview4"
     pagecolor="#ffffff"
     bordercolor="#000000"
     borderopacity="0.25"
     inkscape:showpageshadow="2"
     inkscape:pageopacity="0.0"
     inkscape:pagecheckerboard="0"
     inkscape:deskcolor="#d1d1d1"
     showguides="true"
     inkscape:zoom="1.6799612"
     inkscape:cx="254.47017"
     inkscape:cy="292.86391"
     inkscape:window-width="2560"
     inkscape:window-height="1381"
     inkscape:window-x="0"
     inkscape:window-y="31"
     inkscape:window-maximized="1"
     inkscape:current-layer="svg4" />
  <!-- SVG created with Arrow, by QuiverAI (https://quiver.ai) -->
  <style
     type="text/css"
     id="style1">.cls-0 {fill:#182653;}
.cls-1 {opacity:0.25;fill:none;stroke:#BBBBDD;stroke-width:0.25;stroke-miterlimit:10;enable-background:new    ;}
.cls-2 {opacity:0.35;fill:none;stroke:#BBBBDD;stroke-width:0.25;stroke-miterlimit:10;enable-background:new    ;}
.cls-3 {fill:#B098E2;}</style>
  <rect
     style="display:inline;fill:#ff0000;fill-opacity:1;stroke:none;stroke-width:0.999996;stroke-linejoin:round;stroke-dasharray:none;stroke-dashoffset:286.419;paint-order:stroke markers fill"
     id="rect136"
     width="100"
     height="100"
     x="318.31201"
     y="274.43011"
     ry="0"
     inkscape:export-filename="for-dark-text-1024.png"
     inkscape:export-xdpi="983.03998"
     inkscape:export-ydpi="983.03998" />
  <rect
     style="display:inline;fill:#ff0000;fill-opacity:1;stroke:none;stroke-width:0.999996;stroke-linejoin:round;stroke-dasharray:none;stroke-dashoffset:286.419;paint-order:stroke markers fill"
     id="rect137"
     width="100"
     height="100"
     x="318.31198"
     y="119.72558"
     ry="0"
     inkscape:export-filename="for-light-text-1024.png"
     inkscape:export-xdpi="983.03998"
     inkscape:export-ydpi="983.03998" />
  <rect
     style="fill:#ff0000;fill-opacity:1;stroke:none;stroke-width:0.999996;stroke-linejoin:round;stroke-dasharray:none;stroke-dashoffset:286.419;paint-order:stroke markers fill"
     id="rect133"
     width="100"
     height="100"
     x="78.311981"
     y="119.72558"
     ry="0" />
  <rect
     style="fill:#ff0000;fill-opacity:1;stroke:none;stroke-width:0.999996;stroke-linejoin:round;stroke-dasharray:none;stroke-dashoffset:286.419;paint-order:stroke markers fill"
     id="rect134"
     width="100"
     height="100"
     x="78.311996"
     y="274.12021"
     ry="0" />
  <rect
     style="display:inline;fill:#ff0000;fill-opacity:1;stroke:none;stroke-width:0.999996;stroke-linejoin:round;stroke-dasharray:none;stroke-dashoffset:286.419;paint-order:stroke markers fill"
     id="rect135"
     width="100"
     height="100"
     x="198.31201"
     y="274.43011"
     ry="0"
     inkscape:export-filename="for-dark-1024.png"
     inkscape:export-xdpi="983.03998"
     inkscape:export-ydpi="983.03998" />
  <rect
     style="display:inline;fill:#ff0000;fill-opacity:1;stroke:none;stroke-width:0.999996;stroke-linejoin:round;stroke-dasharray:none;stroke-dashoffset:286.419;paint-order:stroke markers fill"
     id="rect132"
     width="100"
     height="100"
     x="198.31198"
     y="119.72558"
     ry="0"
     inkscape:export-filename="for-light-1024.png"
     inkscape:export-xdpi="983.03998"
     inkscape:export-ydpi="983.03998" />
  <g
     id="g119"
     transform="matrix(1.1261346,0,0,1.1261346,69.752999,113.41887)"
     style="stroke-width:0.887993">
    <path
       id="path115"
       style="fill:#333333;stroke-width:0.88799;stroke-linejoin:round;stroke-dashoffset:286.419;paint-order:stroke markers fill"
       d="m 77.85807,6.2072025 7.8137,2.945118 c 5.7356,2.1618465 8.95189,4.9345765 8.95189,11.0640715 v 63.119183 c 0,6.129496 -4.93457,11.064072 -11.06407,11.064072 H 20.44041 c -6.1295,0 -11.06407,-4.934576 -11.06407,-11.064072 V 70.725681 c 0,-6.129495 62.74613,-66.6803241 68.48173,-64.5184785 z"
       sodipodi:nodetypes="sssssssss" />
    <path
       id="path116"
       style="fill:url(#linearGradient116);stroke-width:0.88799;stroke-linejoin:round;stroke-dashoffset:286.419;paint-order:stroke markers fill"
       d="m 18.64564,5.6003488 c 4.7376,0.00521 10.80448,1.8152244 27.92801,1.775986 17.12353,-0.039238 23.50803,-1.7847596 27.92802,-1.775986 5.1463,0.010215 9.2693,4.1341092 9.2693,9.2693032 v 55.856029 c 0,5.135194 -4.26027,8.138022 -9.2693,9.269303 -6.26426,1.41477 -9.20936,1.775986 -27.92802,1.775986 -18.71866,0 -22.01783,0.204692 -27.92801,-1.775986 -4.86904,-1.631762 -9.2693,-4.134109 -9.2693,-9.269303 V 14.869652 c 0,-5.135194 4.21448,-9.2748621 9.2693,-9.2693032 z"
       sodipodi:nodetypes="szsssszssss" />
  </g>
  <g
     id="g118"
     transform="matrix(1.1261346,0,0,1.1261346,32.09415,113.41887)"
     inkscape:export-filename="for-light.png"
     inkscape:export-xdpi="96"
     inkscape:export-ydpi="96"
     style="stroke-width:0.887993">
    <path
       id="path110"
       style="fill:#333333;stroke-width:0.88799;stroke-linejoin:round;stroke-dashoffset:286.419;paint-order:stroke markers fill"
       d="m 217.85807,6.2072025 7.8137,2.945118 c 5.7356,2.1618465 8.95189,4.9345765 8.95189,11.0640715 v 63.119183 c 0,6.129496 -4.93457,11.064072 -11.06407,11.064072 h -63.11918 c -6.1295,0 -11.06407,-4.934576 -11.06407,-11.064072 V 70.725681 c 0,-6.129495 62.74613,-66.6803241 68.48173,-64.5184785 z"
       sodipodi:nodetypes="sssssssss" />
    <path
       id="path111"
       style="fill:url(#linearGradient113);stroke-width:0.88799;stroke-linejoin:round;stroke-dashoffset:286.419;paint-order:stroke markers fill"
       d="m 158.64564,5.6003488 c 4.7376,0.00521 10.80448,1.8152244 27.92801,1.775986 17.12353,-0.039238 23.50803,-1.7847596 27.92802,-1.775986 5.1463,0.010215 9.2693,4.1341092 9.2693,9.2693032 v 55.856029 c 0,5.135194 -4.26027,8.138022 -9.2693,9.269303 -6.26426,1.41477 -9.20936,1.775986 -27.92802,1.775986 -18.71866,0 -22.01783,0.204692 -27.92801,-1.775986 -4.86904,-1.631762 -9.2693,-4.134109 -9.2693,-9.269303 V 14.869652 c 0,-5.135194 4.21448,-9.2748621 9.2693,-9.2693032 z"
       sodipodi:nodetypes="szsssszssss" />
  </g>
  <path
     d="M 235.64306,166.98778 H 217.8442 v -28.94705 h 4.69108 v 24.4989 h 13.10778 z"
     id="text113"
     style="font-size:34.3622px;font-family:Sans;-inkscape-font-specification:'Sans, Normal';fill:#e6e6e6;stroke-width:0.1;stroke-linejoin:round;stroke-dashoffset:286.419;paint-order:markers fill stroke"
     aria-label="L"
     sodipodi:nodetypes="ccccccc" />
  <text
     xml:space="preserve"
     style="font-size:38.6965px;font-family:Sans;-inkscape-font-specification:Sans;writing-mode:lr-tb;direction:ltr;fill:#e6e6e6;fill-opacity:1;stroke:none;stroke-width:0.1;stroke-linejoin:round;stroke-dasharray:none;stroke-dashoffset:286.419;paint-order:markers fill stroke"
     x="239.82993"
     y="187.08189"
     id="text114"><tspan
       sodipodi:role="line"
       id="tspan114"
       x="239.82993"
       y="187.08189"
       style="font-style:normal;font-variant:normal;font-weight:bold;font-stretch:normal;font-size:38.6965px;font-family:Sans;-inkscape-font-specification:'Sans, Bold';font-variant-ligatures:normal;font-variant-caps:normal;font-variant-numeric:normal;font-variant-east-asian:normal;stroke-width:0.1">ㄌ</tspan></text>
  <g
     id="g5"
     transform="matrix(1.4463106,1.0624343,-1.0624343,1.4463106,105.04337,38.6106)"
     style="fill:#e6e6e6;stroke-width:0.557228">
    <path
       class="cls-3"
       d="M 38.3,50.3 C 38.2,44.4 43.4,39 49.4,39.1 c 0.8,0 1.6,0 2.4,0.1 0.5,0.1 1.1,-0.2 1.1,-0.7 V 36 l 3,2.7 -3,2.5 c 0,-0.8 -1.3,-1.4 -1.7,-0.3 V 43 c 0.1,0.7 0.9,1.1 1.5,0.6 l 5.1,-4 c 0.5,-0.3 0.5,-1.1 0.1,-1.5 L 52.8,33.4 C 52.2,32.7 51.2,33.3 51.2,34 v 3.2 c -7.3,-0.5 -14.6,4.3 -14.7,12.7 0,3.2 1,6.3 3.1,8.9 0.7,0.8 2,0 1.4,-1 -1.7,-2 -2.7,-4.5 -2.7,-7.5 z"
       id="path3"
       style="fill:#e6e6e6;stroke-width:0.557228" />
    <path
       class="cls-3"
       d="m 60.4,41.4 c -0.8,-0.9 -2,0.2 -1.3,1.1 1.5,1.8 2.6,4.3 2.6,7.2 0.2,6.1 -5,11.8 -12,11.3 -0.5,0 -1.8,-0.2 -2.3,-0.1 -0.3,0.1 -0.5,0.4 -0.5,0.6 v 2.2 L 44,61.1 46.9,58.9 c 0,1.1 1.8,1.2 1.8,-0.1 0,-0.7 0.1,-1.6 -0.2,-2.1 -0.3,-0.4 -0.8,-0.5 -1.3,-0.1 l -4.9,3.8 c -0.5,0.4 -0.5,1.1 0,1.6 l 4.7,4.1 c 0.6,0.6 1.7,0.3 1.7,-0.6 v -2.9 c 8.9,0.6 14.7,-5.5 14.7,-12.6 0.1,-3.1 -1,-6.4 -3,-8.6 z"
       id="path4"
       style="fill:#e6e6e6;stroke-width:0.557228" />
  </g>
  <g
     id="g132"
     transform="matrix(1.1261346,0,0,1.1261346,-77.6982,-34.576039)"
     style="stroke-width:0.887993">
    <path
       id="path120"
       style="fill:#cccccc;stroke-width:0.88799;stroke-linejoin:round;stroke-dashoffset:286.419;paint-order:stroke markers fill"
       d="m 208.79375,274.72709 7.8137,2.94512 c 5.7356,2.16185 8.95189,4.93458 8.95189,11.06407 v 63.11918 c 0,6.1295 -4.93457,11.06408 -11.06407,11.06408 h -63.11918 c -6.1295,0 -11.06407,-4.93458 -11.06407,-11.06408 v -12.60989 c 0,-6.12949 62.74613,-66.68032 68.48173,-64.51848 z"
       sodipodi:nodetypes="sssssssss" />
    <path
       id="path131"
       style="fill:url(#linearGradient132);stroke-width:0.88799;stroke-linejoin:round;stroke-dashoffset:286.419;paint-order:stroke markers fill"
       d="m 149.58132,274.12024 c 4.7376,0.005 10.80448,1.81522 27.92801,1.77598 17.12353,-0.0392 23.50803,-1.78475 27.92802,-1.77598 5.1463,0.0102 9.2693,4.13411 9.2693,9.2693 v 55.85603 c 0,5.13519 -4.26027,8.13802 -9.2693,9.2693 -6.26426,1.41477 -9.20936,1.77599 -27.92802,1.77599 -18.71866,0 -22.01783,0.20469 -27.92801,-1.77599 -4.86904,-1.63176 -9.2693,-4.13411 -9.2693,-9.2693 v -55.85603 c 0,-5.13519 4.21448,-9.27486 9.2693,-9.2693 z"
       sodipodi:nodetypes="szsssszssss" />
  </g>
  <path
     id="path122"
     style="fill:#cccccc;stroke-width:0.999996;stroke-linejoin:round;stroke-dashoffset:286.419;paint-order:stroke markers fill"
     d="m 277.43167,274.80364 8.79928,3.3166 c 6.45906,2.43454 10.08103,5.55701 10.08103,12.45964 v 71.08069 c 0,6.90264 -5.55699,12.45964 -12.45963,12.45964 h -71.08069 c -6.90265,0 -12.45964,-5.557 -12.45964,-12.45964 v -14.20043 c 0,-6.90264 70.66059,-75.09102 77.11965,-72.6565 z"
     sodipodi:nodetypes="sssssssss"
     inkscape:export-filename="for-dark-1024.png"
     inkscape:export-xdpi="1024.0004"
     inkscape:export-ydpi="1024.0004" />
  <path
     id="path123"
     style="fill:url(#linearGradient126);stroke-width:0.999996;stroke-linejoin:round;stroke-dashoffset:286.419;paint-order:stroke markers fill"
     d="m 210.7505,274.12025 c 5.33518,0.006 12.1673,2.04418 31.4507,1.99999 19.2834,-0.0441 26.47321,-2.00987 31.45071,-1.99999 5.79543,0.0115 10.43848,4.65556 10.43848,10.43848 v 62.90141 c 0,5.78291 -4.79764,9.1645 -10.43848,10.43847 -7.0544,1.59323 -10.37098,2.00001 -31.45071,2.00001 -21.07973,0 -24.79504,0.23051 -31.4507,-2.00001 -5.48319,-1.83758 -10.43848,-4.65556 -10.43848,-10.43847 v -62.90141 c 0,-5.78292 4.74608,-10.44474 10.43848,-10.43848 z"
     sodipodi:nodetypes="szsssszssss" />
  <path
     d="m 235.64307,321.38242 h -17.79886 v -28.94706 h 4.69108 v 24.4989 h 13.10778 z"
     id="path124"
     style="font-size:34.3622px;font-family:Sans;-inkscape-font-specification:'Sans, Normal';fill:#333333;stroke-width:0.1;stroke-linejoin:round;stroke-dashoffset:286.419;paint-order:markers fill stroke"
     aria-label="L"
     sodipodi:nodetypes="ccccccc" />
  <text
     xml:space="preserve"
     style="font-size:38.6965px;font-family:Sans;-inkscape-font-specification:Sans;writing-mode:lr-tb;direction:ltr;fill:#333333;fill-opacity:1;stroke:none;stroke-width:0.1;stroke-linejoin:round;stroke-dasharray:none;stroke-dashoffset:286.419;paint-order:markers fill stroke"
     x="239.8299"
     y="341.47656"
     id="text124"><tspan
       sodipodi:role="line"
       id="tspan124"
       x="239.8299"
       y="341.47656"
       style="font-style:normal;font-variant:normal;font-weight:bold;font-stretch:normal;font-size:38.6965px;font-family:Sans;-inkscape-font-specification:'Sans, Bold';font-variant-ligatures:normal;font-variant-caps:normal;font-variant-numeric:normal;font-variant-east-asian:normal;fill:#333333;stroke-width:0.1">ㄌ</tspan></text>
  <g
     id="g126"
     transform="matrix(1.4463105,1.0624342,-1.0624342,1.4463105,105.04337,193.00524)"
     style="fill:#333333;stroke-width:0.0557228;stroke-linejoin:round;stroke-dashoffset:179.732;paint-order:markers fill stroke">
    <path
       class="cls-3"
       d="M 38.3,50.3 C 38.2,44.4 43.4,39 49.4,39.1 c 0.8,0 1.6,0 2.4,0.1 0.5,0.1 1.1,-0.2 1.1,-0.7 V 36 l 3,2.7 -3,2.5 c 0,-0.8 -1.3,-1.4 -1.7,-0.3 V 43 c 0.1,0.7 0.9,1.1 1.5,0.6 l 5.1,-4 c 0.5,-0.3 0.5,-1.1 0.1,-1.5 L 52.8,33.4 C 52.2,32.7 51.2,33.3 51.2,34 v 3.2 c -7.3,-0.5 -14.6,4.3 -14.7,12.7 0,3.2 1,6.3 3.1,8.9 0.7,0.8 2,0 1.4,-1 -1.7,-2 -2.7,-4.5 -2.7,-7.5 z"
       id="path125"
       style="fill:#333333;stroke-width:0.0557228;stroke-linejoin:round;stroke-dashoffset:179.732;paint-order:markers fill stroke" />
    <path
       class="cls-3"
       d="m 60.4,41.4 c -0.8,-0.9 -2,0.2 -1.3,1.1 1.5,1.8 2.6,4.3 2.6,7.2 0.2,6.1 -5,11.8 -12,11.3 -0.5,0 -1.8,-0.2 -2.3,-0.1 -0.3,0.1 -0.5,0.4 -0.5,0.6 v 2.2 L 44,61.1 46.9,58.9 c 0,1.1 1.8,1.2 1.8,-0.1 0,-0.7 0.1,-1.6 -0.2,-2.1 -0.3,-0.4 -0.8,-0.5 -1.3,-0.1 l -4.9,3.8 c -0.5,0.4 -0.5,1.1 0,1.6 l 4.7,4.1 c 0.6,0.6 1.7,0.3 1.7,-0.6 v -2.9 c 8.9,0.6 14.7,-5.5 14.7,-12.6 0.1,-3.1 -1,-6.4 -3,-8.6 z"
       id="path126"
       style="fill:#333333;stroke-width:0.0557228;stroke-linejoin:round;stroke-dashoffset:179.732;paint-order:markers fill stroke" />
  </g>
  <g
     id="g139"
     transform="translate(-63.43568)">
    <path
       style="font-size:87.2974px;font-family:'American Typewriter';-inkscape-font-specification:'American Typewriter, Normal';fill:#1a1a1a;stroke-width:0.999997;stroke-linejoin:round;stroke-dashoffset:286.419;paint-order:stroke markers fill"
       d="m 442.75968,186.2248 q 0,5.15054 1.04757,6.11082 0.78567,0.78567 2.00784,0.96027 1.30946,0.17459 5.76163,0.17459 h 7.68217 q 6.02352,0 8.03136,-1.57135 2.00784,-1.65865 2.00784,-6.54731 0,-1.30946 -0.0873,-3.05541 -0.17459,-3.40459 -0.17459,-4.10297 0,-3.84109 3.05541,-3.84109 3.66649,0 3.66649,3.4919 0,1.04757 -0.0873,1.65865 l -0.61108,4.45217 q -0.2619,1.92054 -0.2619,4.01568 0,1.22216 0.1746,3.66649 0.26189,2.35703 0.26189,3.57919 0,3.92838 -4.45217,3.92838 -0.87297,0 -4.01568,-0.17459 -2.09513,-0.0873 -6.46,-0.1746 l -6.54731,-0.0873 h -13.96758 q -2.09514,0 -6.9838,0.17459 -0.69837,0 -2.44432,0.1746 -1.65865,0.17459 -2.61892,0.17459 -3.6665,0 -3.6665,-3.14271 0,-2.79351 2.70622,-2.79351 0.69838,0 2.09514,0.26189 1.39676,0.17459 2.09514,0.17459 4.45217,0 4.45217,-6.5473 V 152.1788 q 0,-6.46001 -4.45217,-6.46001 -1.22216,0 -1.83325,0.1746 -1.39675,0.26189 -2.35703,0.26189 -1.13486,0 -1.92054,-0.78568 -0.78568,-0.87297 -0.78568,-2.09513 0,-3.05541 3.75379,-3.05541 0.52379,0 1.30946,0.0873 l 4.62677,0.52379 q 3.84108,0.43649 5.67433,0.43649 2.26973,0 5.58703,-0.43649 l 4.01568,-0.52379 q 0.69838,-0.0873 1.13487,-0.0873 3.92838,0 3.92838,3.05541 0,1.22216 -0.78568,2.09513 -0.78567,0.78568 -1.92054,0.78568 -0.87297,0 -2.35703,-0.26189 -0.61108,-0.1746 -1.83324,-0.1746 -4.45217,0 -4.45217,6.46001 z"
       id="path137" />
    <path
       style="font-size:87.2974px;font-family:'American Typewriter';-inkscape-font-specification:'American Typewriter, Normal';fill:#1a1a1a;stroke-width:0.999997;stroke-linejoin:round;stroke-dashoffset:286.419;paint-order:stroke markers fill"
       d="m 403.01427,157.67855 v 2.35703 q 4.53947,-6.37271 12.13434,-6.37271 6.11082,0 9.86461,3.49189 3.84108,3.4046 3.84108,8.81704 0,3.84109 -1.92054,6.28541 -1.92054,2.35703 -5.06325,2.35703 -2.00784,0 -3.4046,-1.22216 -1.39676,-1.22216 -1.39676,-2.96811 0,-1.39676 1.04757,-2.44433 1.04757,-1.13487 2.44433,-1.13487 0.26189,0 1.13487,0.2619 0.52378,-1.04757 0.52378,-1.92055 0,-2.53162 -2.26973,-4.27757 -2.18244,-1.74595 -5.49974,-1.74595 -6.80919,0 -9.07893,6.11082 -1.39676,3.75379 -1.39676,11.34866 v 5.76163 q 0,5.84893 0.0873,6.54731 0.43649,4.97595 2.70622,4.97595 1.13487,0 2.35703,-0.34919 0.96027,-0.26189 1.65865,-0.26189 2.79352,0 2.79352,2.79351 0,3.05541 -3.57919,3.05541 h -0.34919 q -1.30947,0 -4.01568,-0.34919 -2.61893,-0.26189 -3.92839,-0.26189 -3.49189,0 -5.49973,0.1746 l -4.88866,0.43648 q -3.57919,0 -3.57919,-3.05541 0,-2.70622 3.3173,-2.70622 0.87297,0 1.30946,0.0873 l 1.30946,0.26189 q 0.87298,0.1746 1.22216,0.1746 2.18244,0 2.35703,-4.01568 l 0.1746,-4.45217 -0.26189,-19.81651 q -0.26189,-5.15055 -2.61892,-5.15055 -0.69838,0 -1.92055,0.2619 -1.22216,0.26189 -1.92054,0.26189 -2.88081,0 -2.88081,-2.79352 0,-3.05541 3.75378,-3.05541 0.87298,0 2.61893,0.2619 1.74594,0.17459 2.61892,0.17459 0.69838,0 2.26973,-0.17459 0.69838,-0.1746 1.65865,-0.1746 2.26973,0 2.26973,2.44433 z"
       id="text135" />
  </g>
  <g
     id="g140"
     transform="translate(-63.43565,154.70453)"
     style="fill:#ffffff">
    <path
       style="font-size:87.2974px;font-family:'American Typewriter';-inkscape-font-specification:'American Typewriter, Normal';fill:#ffffff;stroke-width:0.999997;stroke-linejoin:round;stroke-dashoffset:286.419;paint-order:stroke markers fill"
       d="m 442.75968,186.2248 q 0,5.15054 1.04757,6.11082 0.78567,0.78567 2.00784,0.96027 1.30946,0.17459 5.76163,0.17459 h 7.68217 q 6.02352,0 8.03136,-1.57135 2.00784,-1.65865 2.00784,-6.54731 0,-1.30946 -0.0873,-3.05541 -0.17459,-3.40459 -0.17459,-4.10297 0,-3.84109 3.05541,-3.84109 3.66649,0 3.66649,3.4919 0,1.04757 -0.0873,1.65865 l -0.61108,4.45217 q -0.2619,1.92054 -0.2619,4.01568 0,1.22216 0.1746,3.66649 0.26189,2.35703 0.26189,3.57919 0,3.92838 -4.45217,3.92838 -0.87297,0 -4.01568,-0.17459 -2.09513,-0.0873 -6.46,-0.1746 l -6.54731,-0.0873 h -13.96758 q -2.09514,0 -6.9838,0.17459 -0.69837,0 -2.44432,0.1746 -1.65865,0.17459 -2.61892,0.17459 -3.6665,0 -3.6665,-3.14271 0,-2.79351 2.70622,-2.79351 0.69838,0 2.09514,0.26189 1.39676,0.17459 2.09514,0.17459 4.45217,0 4.45217,-6.5473 V 152.1788 q 0,-6.46001 -4.45217,-6.46001 -1.22216,0 -1.83325,0.1746 -1.39675,0.26189 -2.35703,0.26189 -1.13486,0 -1.92054,-0.78568 -0.78568,-0.87297 -0.78568,-2.09513 0,-3.05541 3.75379,-3.05541 0.52379,0 1.30946,0.0873 l 4.62677,0.52379 q 3.84108,0.43649 5.67433,0.43649 2.26973,0 5.58703,-0.43649 l 4.01568,-0.52379 q 0.69838,-0.0873 1.13487,-0.0873 3.92838,0 3.92838,3.05541 0,1.22216 -0.78568,2.09513 -0.78567,0.78568 -1.92054,0.78568 -0.87297,0 -2.35703,-0.26189 -0.61108,-0.1746 -1.83324,-0.1746 -4.45217,0 -4.45217,6.46001 z"
       id="path139" />
    <path
       style="font-size:87.2974px;font-family:'American Typewriter';-inkscape-font-specification:'American Typewriter, Normal';fill:#ffffff;stroke-width:0.999997;stroke-linejoin:round;stroke-dashoffset:286.419;paint-order:stroke markers fill"
       d="m 403.01427,157.67855 v 2.35703 q 4.53947,-6.37271 12.13434,-6.37271 6.11082,0 9.86461,3.49189 3.84108,3.4046 3.84108,8.81704 0,3.84109 -1.92054,6.28541 -1.92054,2.35703 -5.06325,2.35703 -2.00784,0 -3.4046,-1.22216 -1.39676,-1.22216 -1.39676,-2.96811 0,-1.39676 1.04757,-2.44433 1.04757,-1.13487 2.44433,-1.13487 0.26189,0 1.13487,0.2619 0.52378,-1.04757 0.52378,-1.92055 0,-2.53162 -2.26973,-4.27757 -2.18244,-1.74595 -5.49974,-1.74595 -6.80919,0 -9.07893,6.11082 -1.39676,3.75379 -1.39676,11.34866 v 5.76163 q 0,5.84893 0.0873,6.54731 0.43649,4.97595 2.70622,4.97595 1.13487,0 2.35703,-0.34919 0.96027,-0.26189 1.65865,-0.26189 2.79352,0 2.79352,2.79351 0,3.05541 -3.57919,3.05541 h -0.34919 q -1.30947,0 -4.01568,-0.34919 -2.61893,-0.26189 -3.92839,-0.26189 -3.49189,0 -5.49973,0.1746 l -4.88866,0.43648 q -3.57919,0 -3.57919,-3.05541 0,-2.70622 3.3173,-2.70622 0.87297,0 1.30946,0.0873 l 1.30946,0.26189 q 0.87298,0.1746 1.22216,0.1746 2.18244,0 2.35703,-4.01568 l 0.1746,-4.45217 -0.26189,-19.81651 q -0.26189,-5.15055 -2.61892,-5.15055 -0.69838,0 -1.92055,0.2619 -1.22216,0.26189 -1.92054,0.26189 -2.88081,0 -2.88081,-2.79352 0,-3.05541 3.75378,-3.05541 0.87298,0 2.61893,0.2619 1.74594,0.17459 2.61892,0.17459 0.69838,0 2.26973,-0.17459 0.69838,-0.1746 1.65865,-0.1746 2.26973,0 2.26973,2.44433 z"
       id="path140" />
  </g>
</svg>
